<svg width="569.6624023437499px" height="241.60000610351562px" xmlns="http://www.w3.org/2000/svg" viewBox="-34.831201171874966 -45.80000305175781 569.6624023437499 241.60000610351562" style="background: none;" preserveAspectRatio="xMidYMid"><defs><linearGradient id="editing-shiny-gradient" x1="0.96025242672622" x2="0.039747573273779924" y1="0.3046344357553629" y2="0.695365564244637" gradientUnits="objectBoundingBox"><stop offset="0.0" stop-color="#ffb200"></stop><stop offset="0.5" stop-color="#e10057"></stop><stop offset="1.0" stop-color="#5a1a80"></stop></linearGradient><linearGradient id="editing-shiny-gradient2" x1="0" x2="0" y1="0" y2="1"><stop offset="0.2" stop-color="#fff" stop-opacity="0.8"></stop><stop offset="0.8" stop-color="#fff" stop-opacity="0"></stop></linearGradient><filter id="editing-shiny2" x="-100%" y="-100%" width="300%" height="300%"><feMorphology operator="erode" radius="2"></feMorphology></filter><filter id="editing-shiny" x="-100%" y="-100%" width="300%" height="300%"><feFlood flood-color="#fff" result="flood"></feFlood><feConvolveMatrix in="SourceGraphic" result="conv" order="8,8" divisor="1" kernelMatrix="0 0 0 0 0 0 0 0 0 0 0 1 1 0 0 0 0 0 0 1 1 0 0 0 0 0 1 0 0 1 0 0 0 0 1 0 0 1 0 0 0 1 0 0 0 0 1 0 0 1 1 0 0 1 1 0 0 0 0 1 1 0 0 0 "></feConvolveMatrix><feOffset dx="0" dy="4" in="conv" result="offset"></feOffset><feComposite operator="in" in="flood" in2="offset" result="comp"></feComposite><feGaussianBlur in="offset" stdDeviation="3" result="shadow"></feGaussianBlur><feColorMatrix in="shadow" type="matrix" values="0.7 0 0 0 0  0 0.7 0 0 0  0 0 0.7 0 0  0 0 0 0.3 0" result="dark-shadow"></feColorMatrix><feOffset dx="0" dy="4" in="dark-shadow" result="offset-shadow"></feOffset><feOffset dx="0" dy="2" in="conv" result="offset-2"></feOffset><feComposite operator="out" in="offset" in2="offset-2" result="edge-diff"></feComposite><feGaussianBlur in="edge-diff" stdDeviation="1" result="edge-blur"></feGaussianBlur><feColorMatrix in="edge-blur" result="edge-shadow" type="matrix" values="0 0 0 0 0  0 0 0 0 0  0 0 0 0 0  0 0 0 0.5 0"></feColorMatrix><feComposite operator="in" in="edge-shadow" in2="offset" result="edge-shadow-in"></feComposite><feOffset dx="0" dy="1" in="edge-shadow-in" result="edge-shadow-final"></feOffset><feMerge result="out"><feMergeNode in="offset-shadow"></feMergeNode><feMergeNode in="comp"></feMergeNode><feMergeNode in="edge-shadow-final"></feMergeNode><feMergeNode in="SourceGraphic"></feMergeNode></feMerge></filter></defs><g filter="url(#editing-shiny)"><g transform="translate(45.70998573303223, 98.03999423980713)"><path d="M16.64 0L16.64 0L6.72 0L6.72 0Q5.50 0 4.96-0.54L4.96-0.54L4.96-0.54Q4.42-1.09 4.42-2.30L4.42-2.30L4.42-43.78L4.42-43.78Q4.42-44.99 4.96-45.54L4.96-45.54L4.96-45.54Q5.50-46.08 6.72-46.08L6.72-46.08L35.26-46.08L35.26-46.08Q36.48-46.08 37.02-45.54L37.02-45.54L37.02-45.54Q37.57-44.99 37.57-43.78L37.57-43.78L37.57-36.16L37.57-36.16Q37.57-34.94 37.02-34.40L37.02-34.40L37.02-34.40Q36.48-33.86 35.26-33.86L35.26-33.86L18.94-33.86L18.94-27.20L30.08-27.20L30.08-27.20Q31.30-27.20 31.84-26.66L31.84-26.66L31.84-26.66Q32.38-26.11 32.38-24.90L32.38-24.90L32.38-17.22L32.38-17.22Q32.38-16 31.84-15.46L31.84-15.46L31.84-15.46Q31.30-14.91 30.08-14.91L30.08-14.91L18.94-14.91L18.94-2.30L18.94-2.30Q18.94-1.09 18.40-0.54L18.40-0.54L18.40-0.54Q17.86 0 16.64 0ZM11.39-40.32L11.39-5.76L12.03-5.76L12.03-20.74L26.62-20.74L26.62-21.38L12.03-21.38L12.03-39.68L31.81-39.68L31.81-40.32L11.39-40.32ZM50.43-17.41L50.43-19.39L50.43-19.39Q50.43-21.12 50.72-22.59L50.72-22.59L50.72-22.59Q51.01-24.06 51.46-25.34L51.46-25.34L55.55-35.84L55.55-35.84Q56.19-37.44 56.96-38.56L56.96-38.56L56.96-38.56Q57.73-39.68 59.65-39.68L59.65-39.68L65.92-39.68L65.92-39.68Q67.71-39.68 68.48-38.56L68.48-38.56L68.48-38.56Q69.25-37.44 69.95-35.78L69.95-35.78L74.37-25.34L74.37-25.34Q74.82-24.06 75.10-22.59L75.10-22.59L75.10-22.59Q75.39-21.12 75.39-19.39L75.39-19.39L75.39-17.41L50.43-17.41ZM60.67-32.64L60.67-32.64L57.66-22.91L67.71-22.91L64.70-32.64L64.70-32.64Q64.45-33.22 64.16-33.47L64.16-33.47L64.16-33.47Q63.87-33.73 63.49-33.73L63.49-33.73L61.89-33.73L61.89-33.73Q61.50-33.73 61.22-33.47L61.22-33.47L61.22-33.47Q60.93-33.22 60.67-32.64ZM75.39-16.77L75.39-5.76L76.03-5.76L76.03-19.39L76.03-19.39Q76.03-21.18 75.74-22.69L75.74-22.69L75.74-22.69Q75.46-24.19 74.94-25.60L74.94-25.60L70.53-36.03L70.53-36.03Q69.76-37.89 68.90-39.10L68.90-39.10L68.90-39.10Q68.03-40.32 65.92-40.32L65.92-40.32L59.65-40.32L59.65-40.32Q57.47-40.32 56.58-39.10L56.58-39.10L56.58-39.10Q55.68-37.89 54.98-36.10L54.98-36.10L50.88-25.60L50.88-25.60Q50.37-24.19 50.08-22.69L50.08-22.69L50.08-22.69Q49.79-21.18 49.79-19.39L49.79-19.39L49.79-5.76L50.43-5.76L50.43-16.77L75.39-16.77ZM57.02-11.26L57.02-2.30L57.02-2.30Q57.02-1.09 56.48-0.54L56.48-0.54L56.48-0.54Q55.94 0 54.72 0L54.72 0L45.31 0L45.31 0Q44.10 0 43.55-0.54L43.55-0.54L43.55-0.54Q43.01-1.09 43.01-2.30L43.01-2.30L43.01-19.20L43.01-19.20Q43.01-21.12 43.62-23.62L43.62-23.62L43.62-23.62Q44.22-26.11 45.50-29.44L45.50-29.44L51.07-43.97L51.07-43.97Q51.46-45.06 52.26-45.57L52.26-45.57L52.26-45.57Q53.06-46.08 54.34-46.08L54.34-46.08L71.55-46.08L71.55-46.08Q72.77-46.08 73.57-45.57L73.57-45.57L73.57-45.57Q74.37-45.06 74.75-43.97L74.75-43.97L80.32-29.44L80.32-29.44Q81.60-26.11 82.21-23.62L82.21-23.62L82.21-23.62Q82.82-21.12 82.82-19.20L82.82-19.20L82.82-2.30L82.82-2.30Q82.82-1.09 82.27-0.54L82.27-0.54L82.27-0.54Q81.73 0 80.51 0L80.51 0L70.85 0L70.85 0Q69.57 0 68.96-0.54L68.96-0.54L68.96-0.54Q68.35-1.09 68.35-2.30L68.35-2.30L68.35-11.26L57.02-11.26ZM112.06 0L112.06 0L91.84 0L91.84 0Q90.62 0 90.08-0.54L90.08-0.54L90.08-0.54Q89.54-1.09 89.54-2.30L89.54-2.30L89.54-9.79L89.54-9.79Q89.54-11.01 90.08-11.55L90.08-11.55L90.08-11.55Q90.62-12.10 91.84-12.10L91.84-12.10L109.06-12.10L109.06-12.10Q109.89-12.10 110.30-12.64L110.30-12.64L110.30-12.64Q110.72-13.18 110.72-13.95L110.72-13.95L110.72-13.95Q110.72-15.04 110.30-15.55L110.30-15.55L110.30-15.55Q109.89-16.06 109.06-16.13L109.06-16.13L99.46-17.47L99.46-17.47Q94.98-18.11 92.26-20.42L92.26-20.42L92.26-20.42Q89.54-22.72 89.54-28.10L89.54-28.10L89.54-34.82L89.54-34.82Q89.54-40.26 93.06-43.17L93.06-43.17L93.06-43.17Q96.58-46.08 102.78-46.08L102.78-46.08L120.70-46.08L120.70-46.08Q121.92-46.08 122.46-45.54L122.46-45.54L122.46-45.54Q123.01-44.99 123.01-43.78L123.01-43.78L123.01-36.16L123.01-36.16Q123.01-34.94 122.46-34.40L122.46-34.40L122.46-34.40Q121.92-33.86 120.70-33.86L120.70-33.86L105.79-33.86L105.79-33.86Q104.96-33.86 104.51-33.31L104.51-33.31L104.51-33.31Q104.06-32.77 104.06-31.94L104.06-31.94L104.06-31.94Q104.06-31.10 104.51-30.53L104.51-30.53L104.51-30.53Q104.96-29.95 105.79-29.89L105.79-29.89L115.33-28.61L115.33-28.61Q119.81-27.97 122.56-25.66L122.56-25.66L122.56-25.66Q125.31-23.36 125.31-17.98L125.31-17.98L125.31-11.26L125.31-11.26Q125.31-5.82 121.76-2.91L121.76-2.91L121.76-2.91Q118.21 0 112.06 0ZM117.25-39.68L117.25-40.32L103.04-40.32L103.04-40.32Q100.10-40.32 98.30-38.69L98.30-38.69L98.30-38.69Q96.51-37.06 96.51-34.50L96.51-34.50L96.51-29.25L96.51-29.25Q96.51-26.62 97.57-25.63L97.57-25.63L97.57-25.63Q98.62-24.64 100.29-24.32L100.29-24.32L113.79-21.57L113.79-21.57Q115.58-21.18 116.64-20.06L116.64-20.06L116.64-20.06Q117.70-18.94 117.70-15.94L117.70-15.94L117.70-12.22L117.70-12.22Q117.70-9.66 115.94-8.03L115.94-8.03L115.94-8.03Q114.18-6.40 111.23-6.40L111.23-6.40L95.30-6.40L95.30-5.76L111.23-5.76L111.23-5.76Q114.50-5.76 116.42-7.58L116.42-7.58L116.42-7.58Q118.34-9.41 118.34-12.22L118.34-12.22L118.34-15.94L118.34-15.94Q118.34-19.26 117.09-20.54L117.09-20.54L117.09-20.54Q115.84-21.82 113.92-22.21L113.92-22.21L100.42-24.96L100.42-24.96Q98.94-25.22 98.05-26.11L98.05-26.11L98.05-26.11Q97.15-27.01 97.15-29.25L97.15-29.25L97.15-34.50L97.15-34.50Q97.15-36.74 98.75-38.21L98.75-38.21L98.75-38.21Q100.35-39.68 103.04-39.68L103.04-39.68L117.25-39.68ZM154.05 0L154.05 0L143.68 0L143.68 0Q142.46 0 141.92-0.54L141.92-0.54L141.92-0.54Q141.38-1.09 141.38-2.30L141.38-2.30L141.38-33.73L131.97-33.73L131.97-33.73Q130.75-33.73 130.21-34.27L130.21-34.27L130.21-34.27Q129.66-34.82 129.66-36.03L129.66-36.03L129.66-43.78L129.66-43.78Q129.66-44.99 130.21-45.54L130.21-45.54L130.21-45.54Q130.75-46.08 131.97-46.08L131.97-46.08L165.76-46.08L165.76-46.08Q166.98-46.08 167.52-45.54L167.52-45.54L167.52-45.54Q168.06-44.99 168.06-43.78L168.06-43.78L168.06-36.03L168.06-36.03Q168.06-34.82 167.52-34.27L167.52-34.27L167.52-34.27Q166.98-33.73 165.76-33.73L165.76-33.73L156.35-33.73L156.35-2.30L156.35-2.30Q156.35-1.09 155.81-0.54L155.81-0.54L155.81-0.54Q155.26 0 154.05 0ZM148.54-39.68L148.54-5.76L149.18-5.76L149.18-39.68L162.30-39.68L162.30-40.32L135.42-40.32L135.42-39.68L148.54-39.68ZM196.22-39.68L210.18-39.68L210.18-39.68Q213.57-39.68 215.20-37.82L215.20-37.82L215.20-37.82Q216.83-35.97 216.83-33.02L216.83-33.02L216.83-28.54L216.83-28.54Q216.83-25.02 215.49-23.10L215.49-23.10L215.49-23.10Q214.14-21.18 210.18-21.18L210.18-21.18L196.22-21.18L196.22-39.68ZM207.94-34.56L203.14-34.56L203.14-26.37L207.94-26.37L207.94-26.37Q209.60-26.37 210.18-27.23L210.18-27.23L210.18-27.23Q210.75-28.10 210.75-29.38L210.75-29.38L210.75-31.55L210.75-31.55Q210.75-32.83 210.18-33.70L210.18-33.70L210.18-33.70Q209.60-34.56 207.94-34.56L207.94-34.56ZM195.58-5.76L196.22-5.76L196.22-20.61L214.34-20.61L214.34-20.61Q217.98-20.61 219.71-19.04L219.71-19.04L219.71-19.04Q221.44-17.47 221.44-14.34L221.44-14.34L221.44-5.76L222.08-5.76L222.08-14.34L222.08-14.34Q222.08-17.66 220.16-19.42L220.16-19.42L220.16-19.42Q218.24-21.18 214.34-21.18L214.34-21.18L213.63-21.18L213.63-21.18Q215.94-21.89 216.70-23.78L216.70-23.78L216.70-23.78Q217.47-25.66 217.47-28.61L217.47-28.61L217.47-33.02L217.47-33.02Q217.47-36.16 215.68-38.24L215.68-38.24L215.68-38.24Q213.89-40.32 210.18-40.32L210.18-40.32L195.58-40.32L195.58-5.76ZM200.83 0L200.83 0L190.98 0L190.98 0Q189.76 0 189.22-0.54L189.22-0.54L189.22-0.54Q188.67-1.09 188.67-2.30L188.67-2.30L188.67-43.78L188.67-43.78Q188.67-44.99 189.22-45.54L189.22-45.54L189.22-45.54Q189.76-46.08 190.98-46.08L190.98-46.08L212.29-46.08L212.29-46.08Q219.46-46.08 222.18-43.10L222.18-43.10L222.18-43.10Q224.90-40.13 224.90-35.39L224.90-35.39L224.90-32.45L224.90-32.45Q224.90-29.76 224.10-27.87L224.10-27.87L224.10-27.87Q223.30-25.98 221.31-25.15L221.31-25.15L221.31-25.15Q224.77-24.77 226.91-22.34L226.91-22.34L226.91-22.34Q229.06-19.90 229.06-15.87L229.06-15.87L229.06-2.30L229.06-2.30Q229.06-1.09 228.51-0.54L228.51-0.54L228.51-0.54Q227.97 0 226.75 0L226.75 0L216.83 0L216.83 0Q215.62 0 215.07-0.54L215.07-0.54L215.07-0.54Q214.53-1.09 214.53-2.30L214.53-2.30L214.53-12.10L214.53-12.10Q214.53-13.50 213.98-14.18L213.98-14.18L213.98-14.18Q213.44-14.85 212.10-14.85L212.10-14.85L203.14-14.85L203.14-2.30L203.14-2.30Q203.14-1.09 202.59-0.54L202.59-0.54L202.59-0.54Q202.05 0 200.83 0ZM268.22 0L268.22 0L238.53 0L238.53 0Q237.31 0 236.77-0.54L236.77-0.54L236.77-0.54Q236.22-1.09 236.22-2.30L236.22-2.30L236.22-43.78L236.22-43.78Q236.22-44.99 236.77-45.54L236.77-45.54L236.77-45.54Q237.31-46.08 238.53-46.08L238.53-46.08L268.22-46.08L268.22-46.08Q269.44-46.08 269.98-45.54L269.98-45.54L269.98-45.54Q270.53-44.99 270.53-43.78L270.53-43.78L270.53-36.29L270.53-36.29Q270.53-35.07 269.98-34.53L269.98-34.53L269.98-34.53Q269.44-33.98 268.22-33.98L268.22-33.98L250.56-33.98L250.56-29.06L263.04-29.06L263.04-29.06Q264.26-29.06 264.80-28.51L264.80-28.51L264.80-28.51Q265.34-27.97 265.34-26.75L265.34-26.75L265.34-19.90L265.34-19.90Q265.34-18.69 264.80-18.14L264.80-18.14L264.80-18.14Q264.26-17.60 263.04-17.60L263.04-17.60L250.56-17.60L250.56-12.10L268.22-12.10L268.22-12.10Q269.44-12.10 269.98-11.55L269.98-11.55L269.98-11.55Q270.53-11.01 270.53-9.79L270.53-9.79L270.53-2.30L270.53-2.30Q270.53-1.09 269.98-0.54L269.98-0.54L269.98-0.54Q269.44 0 268.22 0ZM264.77-5.76L264.77-6.40L243.84-6.40L243.84-22.98L259.58-22.98L259.58-23.62L243.84-23.62L243.84-39.68L264.77-39.68L264.77-40.32L243.20-40.32L243.20-5.76L264.77-5.76ZM313.28 0L313.28 0L293.12 0L293.12 0Q285.12 0 281.25-3.20L281.25-3.20L281.25-3.20Q277.38-6.40 277.38-13.06L277.38-13.06L277.38-33.02L277.38-33.02Q277.38-39.68 281.25-42.88L281.25-42.88L281.25-42.88Q285.12-46.08 293.12-46.08L293.12-46.08L309.12-46.08L309.12-46.08Q310.34-46.08 310.88-45.54L310.88-45.54L310.88-45.54Q311.42-44.99 311.42-43.78L311.42-43.78L311.42-36.03L311.42-36.03Q311.42-34.82 310.88-34.27L310.88-34.27L310.88-34.27Q310.34-33.73 309.12-33.73L309.12-33.73L295.81-33.73L295.81-33.73Q293.82-33.73 292.86-32.93L292.86-32.93L292.86-32.93Q291.90-32.13 291.90-30.53L291.90-30.53L291.90-15.23L291.90-15.23Q291.90-13.63 292.64-12.86L292.64-12.86L292.64-12.86Q293.38-12.10 294.85-12.10L294.85-12.10L301.06-12.10L301.06-22.08L301.06-22.08Q301.06-23.30 301.60-23.84L301.60-23.84L301.60-23.84Q302.14-24.38 303.36-24.38L303.36-24.38L313.28-24.38L313.28-24.38Q314.50-24.38 315.04-23.84L315.04-23.84L315.04-23.84Q315.58-23.30 315.58-22.08L315.58-22.08L315.58-2.30L315.58-2.30Q315.58-1.09 315.04-0.54L315.04-0.54L315.04-0.54Q314.50 0 313.28 0ZM295.87-5.76L295.87-5.76L308.61-5.76L308.61-18.62L307.97-18.62L307.97-6.40L295.87-6.40L295.87-6.40Q289.41-6.40 287.20-8.13L287.20-8.13L287.20-8.13Q284.99-9.86 284.99-14.02L284.99-14.02L284.99-31.94L284.99-31.94Q284.99-36.16 286.98-37.92L286.98-37.92L286.98-37.92Q288.96-39.68 294.59-39.68L294.59-39.68L305.66-39.68L305.66-40.32L294.59-40.32L294.59-40.32Q288.45-40.32 286.40-38.40L286.40-38.40L286.40-38.40Q284.35-36.48 284.35-31.94L284.35-31.94L284.35-14.02L284.35-14.02Q284.35-11.78 284.83-10.21L284.83-10.21L284.83-10.21Q285.31-8.64 286.59-7.65L286.59-7.65L286.59-7.65Q287.87-6.66 290.11-6.21L290.11-6.21L290.11-6.21Q292.35-5.76 295.87-5.76ZM355.39 0L355.39 0L325.70 0L325.70 0Q324.48 0 323.94-0.54L323.94-0.54L323.94-0.54Q323.39-1.09 323.39-2.30L323.39-2.30L323.39-43.78L323.39-43.78Q323.39-44.99 323.94-45.54L323.94-45.54L323.94-45.54Q324.48-46.08 325.70-46.08L325.70-46.08L355.39-46.08L355.39-46.08Q356.61-46.08 357.15-45.54L357.15-45.54L357.15-45.54Q357.70-44.99 357.70-43.78L357.70-43.78L357.70-36.29L357.70-36.29Q357.70-35.07 357.15-34.53L357.15-34.53L357.15-34.53Q356.61-33.98 355.39-33.98L355.39-33.98L337.73-33.98L337.73-29.06L350.21-29.06L350.21-29.06Q351.42-29.06 351.97-28.51L351.97-28.51L351.97-28.51Q352.51-27.97 352.51-26.75L352.51-26.75L352.51-19.90L352.51-19.90Q352.51-18.69 351.97-18.14L351.97-18.14L351.97-18.14Q351.42-17.60 350.21-17.60L350.21-17.60L337.73-17.60L337.73-12.10L355.39-12.10L355.39-12.10Q356.61-12.10 357.15-11.55L357.15-11.55L357.15-11.55Q357.70-11.01 357.70-9.79L357.70-9.79L357.70-2.30L357.70-2.30Q357.70-1.09 357.15-0.54L357.15-0.54L357.15-0.54Q356.61 0 355.39 0ZM351.94-5.76L351.94-6.40L331.01-6.40L331.01-22.98L346.75-22.98L346.75-23.62L331.01-23.62L331.01-39.68L351.94-39.68L351.94-40.32L330.37-40.32L330.37-5.76L351.94-5.76ZM372.16-5.76L372.16-8.64L372.16-8.64Q372.16-9.98 372.29-11.23L372.29-11.23L372.29-11.23Q372.42-12.48 373.06-13.31L373.06-13.31L380.61-23.68L388.29-23.68L395.78-13.31L395.78-13.31Q396.42-12.42 396.54-11.20L396.54-11.20L396.54-11.20Q396.67-9.98 396.67-8.64L396.67-8.64L396.67-5.76L397.31-5.76L397.31-8.64L397.31-8.64Q397.31-10.05 397.18-11.30L397.18-11.30L397.18-11.30Q397.06-12.54 396.35-13.57L396.35-13.57L388.80-23.94L396.35-34.43L396.35-34.43Q397.06-35.46 397.18-36.70L397.18-36.70L397.18-36.70Q397.31-37.95 397.31-39.36L397.31-39.36L397.31-40.32L396.67-40.32L396.67-39.36L396.67-39.36Q396.67-38.02 396.54-36.80L396.54-36.80L396.54-36.80Q396.42-35.58 395.78-34.69L395.78-34.69L388.35-24.32L380.74-24.32L373.06-34.69L373.06-34.69Q372.42-35.58 372.29-36.80L372.29-36.80L372.29-36.80Q372.16-38.02 372.16-39.36L372.16-39.36L372.16-40.32L371.52-40.32L371.52-39.36L371.52-39.36Q371.52-37.95 371.65-36.70L371.65-36.70L371.65-36.70Q371.78-35.46 372.48-34.43L372.48-34.43L380.16-24.06L372.48-13.57L372.48-13.57Q371.71-12.54 371.62-11.30L371.62-11.30L371.62-11.30Q371.52-10.05 371.52-8.64L371.52-8.64L371.52-5.76L372.16-5.76ZM379.01-8.64L379.01-2.30L379.01-2.30Q379.01-1.09 378.46-0.54L378.46-0.54L378.46-0.54Q377.92 0 376.70 0L376.70 0L366.98 0L366.98 0Q365.76 0 365.22-0.54L365.22-0.54L365.22-0.54Q364.67-1.09 364.67-2.30L364.67-2.30L364.67-9.15L364.67-9.15Q364.67-12.10 365.18-13.57L365.18-13.57L365.18-13.57Q365.70-15.04 367.10-17.02L367.10-17.02L372.29-24L367.10-30.98L367.10-30.98Q365.63-32.96 365.15-34.43L365.15-34.43L365.15-34.43Q364.67-35.90 364.67-38.85L364.67-38.85L364.67-43.78L364.67-43.78Q364.67-44.99 365.22-45.54L365.22-45.54L365.22-45.54Q365.76-46.08 366.98-46.08L366.98-46.08L376.83-46.08L376.83-46.08Q378.05-46.08 378.59-45.54L378.59-45.54L378.59-45.54Q379.14-44.99 379.14-43.78L379.14-43.78L379.14-39.36L379.14-39.36Q379.14-38.72 379.20-38.02L379.20-38.02L379.20-38.02Q379.26-37.31 379.71-36.67L379.71-36.67L382.53-32.64L382.53-32.64Q382.85-32.13 383.20-31.84L383.20-31.84L383.20-31.84Q383.55-31.55 384.06-31.55L384.06-31.55L384.83-31.55L384.83-31.55Q385.34-31.55 385.66-31.84L385.66-31.84L385.66-31.84Q385.98-32.13 386.37-32.64L386.37-32.64L389.25-36.67L389.25-36.67Q389.70-37.31 389.76-38.02L389.76-38.02L389.76-38.02Q389.82-38.72 389.82-39.36L389.82-39.36L389.82-43.78L389.82-43.78Q389.82-44.99 390.37-45.54L390.37-45.54L390.37-45.54Q390.91-46.08 392.13-46.08L392.13-46.08L401.86-46.08L401.86-46.08Q403.07-46.08 403.62-45.54L403.62-45.54L403.62-45.54Q404.16-44.99 404.16-43.78L404.16-43.78L404.16-38.85L404.16-38.85Q404.16-35.90 403.65-34.43L403.65-34.43L403.65-34.43Q403.14-32.96 401.73-30.98L401.73-30.98L396.54-23.94L401.73-17.02L401.73-17.02Q403.20-15.04 403.68-13.57L403.68-13.57L403.68-13.57Q404.16-12.10 404.16-9.15L404.16-9.15L404.16-2.30L404.16-2.30Q404.16-1.09 403.62-0.54L403.62-0.54L403.62-0.54Q403.07 0 401.86 0L401.86 0L392.13 0L392.13 0Q390.91 0 390.37-0.54L390.37-0.54L390.37-0.54Q389.82-1.09 389.82-2.30L389.82-2.30L389.82-8.64L389.82-8.64Q389.82-9.28 389.76-9.98L389.76-9.98L389.76-9.98Q389.70-10.69 389.25-11.33L389.25-11.33L386.43-15.36L386.43-15.36Q386.05-15.94 385.73-16.19L385.73-16.19L385.73-16.19Q385.41-16.45 384.90-16.45L384.90-16.45L384-16.45L384-16.45Q383.49-16.45 383.17-16.19L383.17-16.19L383.17-16.19Q382.85-15.94 382.46-15.36L382.46-15.36L379.58-11.33L379.58-11.33Q379.14-10.69 379.07-9.98L379.07-9.98L379.07-9.98Q379.01-9.28 379.01-8.64L379.01-8.64Z" fill="url(#editing-shiny-gradient)"></path></g></g><g filter="url(#editing-shiny2)"><g transform="translate(45.71000862121582, 98.03999614715576)"><path d="M16.64 0L16.64 0L6.72 0L6.72 0Q5.50 0 4.96-0.54L4.96-0.54L4.96-0.54Q4.42-1.09 4.42-2.30L4.42-2.30L4.42-43.78L4.42-43.78Q4.42-44.99 4.96-45.54L4.96-45.54L4.96-45.54Q5.50-46.08 6.72-46.08L6.72-46.08L35.26-46.08L35.26-46.08Q36.48-46.08 37.02-45.54L37.02-45.54L37.02-45.54Q37.57-44.99 37.57-43.78L37.57-43.78L37.57-36.16L37.57-36.16Q37.57-34.94 37.02-34.40L37.02-34.40L37.02-34.40Q36.48-33.86 35.26-33.86L35.26-33.86L18.94-33.86L18.94-27.20L30.08-27.20L30.08-27.20Q31.30-27.20 31.84-26.66L31.84-26.66L31.84-26.66Q32.38-26.11 32.38-24.90L32.38-24.90L32.38-17.22L32.38-17.22Q32.38-16 31.84-15.46L31.84-15.46L31.84-15.46Q31.30-14.91 30.08-14.91L30.08-14.91L18.94-14.91L18.94-2.30L18.94-2.30Q18.94-1.09 18.40-0.54L18.40-0.54L18.40-0.54Q17.86 0 16.64 0ZM11.39-40.32L11.39-5.76L12.03-5.76L12.03-20.74L26.62-20.74L26.62-21.38L12.03-21.38L12.03-39.68L31.81-39.68L31.81-40.32L11.39-40.32ZM50.43-17.41L50.43-19.39L50.43-19.39Q50.43-21.12 50.72-22.59L50.72-22.59L50.72-22.59Q51.01-24.06 51.46-25.34L51.46-25.34L55.55-35.84L55.55-35.84Q56.19-37.44 56.96-38.56L56.96-38.56L56.96-38.56Q57.73-39.68 59.65-39.68L59.65-39.68L65.92-39.68L65.92-39.68Q67.71-39.68 68.48-38.56L68.48-38.56L68.48-38.56Q69.25-37.44 69.95-35.78L69.95-35.78L74.37-25.34L74.37-25.34Q74.82-24.06 75.10-22.59L75.10-22.59L75.10-22.59Q75.39-21.12 75.39-19.39L75.39-19.39L75.39-17.41L50.43-17.41ZM60.67-32.64L60.67-32.64L57.66-22.91L67.71-22.91L64.70-32.64L64.70-32.64Q64.45-33.22 64.16-33.47L64.16-33.47L64.16-33.47Q63.87-33.73 63.49-33.73L63.49-33.73L61.89-33.73L61.89-33.73Q61.50-33.73 61.22-33.47L61.22-33.47L61.22-33.47Q60.93-33.22 60.67-32.64ZM75.39-16.77L75.39-5.76L76.03-5.76L76.03-19.39L76.03-19.39Q76.03-21.18 75.74-22.69L75.74-22.69L75.74-22.69Q75.46-24.19 74.94-25.60L74.94-25.60L70.53-36.03L70.53-36.03Q69.76-37.89 68.90-39.10L68.90-39.10L68.90-39.10Q68.03-40.32 65.92-40.32L65.92-40.32L59.65-40.32L59.65-40.32Q57.47-40.32 56.58-39.10L56.58-39.10L56.58-39.10Q55.68-37.89 54.98-36.10L54.98-36.10L50.88-25.60L50.88-25.60Q50.37-24.19 50.08-22.69L50.08-22.69L50.08-22.69Q49.79-21.18 49.79-19.39L49.79-19.39L49.79-5.76L50.43-5.76L50.43-16.77L75.39-16.77ZM57.02-11.26L57.02-2.30L57.02-2.30Q57.02-1.09 56.48-0.54L56.48-0.54L56.48-0.54Q55.94 0 54.72 0L54.72 0L45.31 0L45.31 0Q44.10 0 43.55-0.54L43.55-0.54L43.55-0.54Q43.01-1.09 43.01-2.30L43.01-2.30L43.01-19.20L43.01-19.20Q43.01-21.12 43.62-23.62L43.62-23.62L43.62-23.62Q44.22-26.11 45.50-29.44L45.50-29.44L51.07-43.97L51.07-43.97Q51.46-45.06 52.26-45.57L52.26-45.57L52.26-45.57Q53.06-46.08 54.34-46.08L54.34-46.08L71.55-46.08L71.55-46.08Q72.77-46.08 73.57-45.57L73.57-45.57L73.57-45.57Q74.37-45.06 74.75-43.97L74.75-43.97L80.32-29.44L80.32-29.44Q81.60-26.11 82.21-23.62L82.21-23.62L82.21-23.62Q82.82-21.12 82.82-19.20L82.82-19.20L82.82-2.30L82.82-2.30Q82.82-1.09 82.27-0.54L82.27-0.54L82.27-0.54Q81.73 0 80.51 0L80.51 0L70.85 0L70.85 0Q69.57 0 68.96-0.54L68.96-0.54L68.96-0.54Q68.35-1.09 68.35-2.30L68.35-2.30L68.35-11.26L57.02-11.26ZM112.06 0L112.06 0L91.84 0L91.84 0Q90.62 0 90.08-0.54L90.08-0.54L90.08-0.54Q89.54-1.09 89.54-2.30L89.54-2.30L89.54-9.79L89.54-9.79Q89.54-11.01 90.08-11.55L90.08-11.55L90.08-11.55Q90.62-12.10 91.84-12.10L91.84-12.10L109.06-12.10L109.06-12.10Q109.89-12.10 110.30-12.64L110.30-12.64L110.30-12.64Q110.72-13.18 110.72-13.95L110.72-13.95L110.72-13.95Q110.72-15.04 110.30-15.55L110.30-15.55L110.30-15.55Q109.89-16.06 109.06-16.13L109.06-16.13L99.46-17.47L99.46-17.47Q94.98-18.11 92.26-20.42L92.26-20.42L92.26-20.42Q89.54-22.72 89.54-28.10L89.54-28.10L89.54-34.82L89.54-34.82Q89.54-40.26 93.06-43.17L93.06-43.17L93.06-43.17Q96.58-46.08 102.78-46.08L102.78-46.08L120.70-46.08L120.70-46.08Q121.92-46.08 122.46-45.54L122.46-45.54L122.46-45.54Q123.01-44.99 123.01-43.78L123.01-43.78L123.01-36.16L123.01-36.16Q123.01-34.94 122.46-34.40L122.46-34.40L122.46-34.40Q121.92-33.86 120.70-33.86L120.70-33.86L105.79-33.86L105.79-33.86Q104.96-33.86 104.51-33.31L104.51-33.31L104.51-33.31Q104.06-32.77 104.06-31.94L104.06-31.94L104.06-31.94Q104.06-31.10 104.51-30.53L104.51-30.53L104.51-30.53Q104.96-29.95 105.79-29.89L105.79-29.89L115.33-28.61L115.33-28.61Q119.81-27.97 122.56-25.66L122.56-25.66L122.56-25.66Q125.31-23.36 125.31-17.98L125.31-17.98L125.31-11.26L125.31-11.26Q125.31-5.82 121.76-2.91L121.76-2.91L121.76-2.91Q118.21 0 112.06 0ZM117.25-39.68L117.25-40.32L103.04-40.32L103.04-40.32Q100.10-40.32 98.30-38.69L98.30-38.69L98.30-38.69Q96.51-37.06 96.51-34.50L96.51-34.50L96.51-29.25L96.51-29.25Q96.51-26.62 97.57-25.63L97.57-25.63L97.57-25.63Q98.62-24.64 100.29-24.32L100.29-24.32L113.79-21.57L113.79-21.57Q115.58-21.18 116.64-20.06L116.64-20.06L116.64-20.06Q117.70-18.94 117.70-15.94L117.70-15.94L117.70-12.22L117.70-12.22Q117.70-9.66 115.94-8.03L115.94-8.03L115.94-8.03Q114.18-6.40 111.23-6.40L111.23-6.40L95.30-6.40L95.30-5.76L111.23-5.76L111.23-5.76Q114.50-5.76 116.42-7.58L116.42-7.58L116.42-7.58Q118.34-9.41 118.34-12.22L118.34-12.22L118.34-15.94L118.34-15.94Q118.34-19.26 117.09-20.54L117.09-20.54L117.09-20.54Q115.84-21.82 113.92-22.21L113.92-22.21L100.42-24.96L100.42-24.96Q98.94-25.22 98.05-26.11L98.05-26.11L98.05-26.11Q97.15-27.01 97.15-29.25L97.15-29.25L97.15-34.50L97.15-34.50Q97.15-36.74 98.75-38.21L98.75-38.21L98.75-38.21Q100.35-39.68 103.04-39.68L103.04-39.68L117.25-39.68ZM154.05 0L154.05 0L143.68 0L143.68 0Q142.46 0 141.92-0.54L141.92-0.54L141.92-0.54Q141.38-1.09 141.38-2.30L141.38-2.30L141.38-33.73L131.97-33.73L131.97-33.73Q130.75-33.73 130.21-34.27L130.21-34.27L130.21-34.27Q129.66-34.82 129.66-36.03L129.66-36.03L129.66-43.78L129.66-43.78Q129.66-44.99 130.21-45.54L130.21-45.54L130.21-45.54Q130.75-46.08 131.97-46.08L131.97-46.08L165.76-46.08L165.76-46.08Q166.98-46.08 167.52-45.54L167.52-45.54L167.52-45.54Q168.06-44.99 168.06-43.78L168.06-43.78L168.06-36.03L168.06-36.03Q168.06-34.82 167.52-34.27L167.52-34.27L167.52-34.27Q166.98-33.73 165.76-33.73L165.76-33.73L156.35-33.73L156.35-2.30L156.35-2.30Q156.35-1.09 155.81-0.54L155.81-0.54L155.81-0.54Q155.26 0 154.05 0ZM148.54-39.68L148.54-5.76L149.18-5.76L149.18-39.68L162.30-39.68L162.30-40.32L135.42-40.32L135.42-39.68L148.54-39.68ZM196.22-39.68L210.18-39.68L210.18-39.68Q213.57-39.68 215.20-37.82L215.20-37.82L215.20-37.82Q216.83-35.97 216.83-33.02L216.83-33.02L216.83-28.54L216.83-28.54Q216.83-25.02 215.49-23.10L215.49-23.10L215.49-23.10Q214.14-21.18 210.18-21.18L210.18-21.18L196.22-21.18L196.22-39.68ZM207.94-34.56L203.14-34.56L203.14-26.37L207.94-26.37L207.94-26.37Q209.60-26.37 210.18-27.23L210.18-27.23L210.18-27.23Q210.75-28.10 210.75-29.38L210.75-29.38L210.75-31.55L210.75-31.55Q210.75-32.83 210.18-33.70L210.18-33.70L210.18-33.70Q209.60-34.56 207.94-34.56L207.94-34.56ZM195.58-5.76L196.22-5.76L196.22-20.61L214.34-20.61L214.34-20.61Q217.98-20.61 219.71-19.04L219.71-19.04L219.71-19.04Q221.44-17.47 221.44-14.34L221.44-14.34L221.44-5.76L222.08-5.76L222.08-14.34L222.08-14.34Q222.08-17.66 220.16-19.42L220.16-19.42L220.16-19.42Q218.24-21.18 214.34-21.18L214.34-21.18L213.63-21.18L213.63-21.18Q215.94-21.89 216.70-23.78L216.70-23.78L216.70-23.78Q217.47-25.66 217.47-28.61L217.47-28.61L217.47-33.02L217.47-33.02Q217.47-36.16 215.68-38.24L215.68-38.24L215.68-38.24Q213.89-40.32 210.18-40.32L210.18-40.32L195.58-40.32L195.58-5.76ZM200.83 0L200.83 0L190.98 0L190.98 0Q189.76 0 189.22-0.54L189.22-0.54L189.22-0.54Q188.67-1.09 188.67-2.30L188.67-2.30L188.67-43.78L188.67-43.78Q188.67-44.99 189.22-45.54L189.22-45.54L189.22-45.54Q189.76-46.08 190.98-46.08L190.98-46.08L212.29-46.08L212.29-46.08Q219.46-46.08 222.18-43.10L222.18-43.10L222.18-43.10Q224.90-40.13 224.90-35.39L224.90-35.39L224.90-32.45L224.90-32.45Q224.90-29.76 224.10-27.87L224.10-27.87L224.10-27.87Q223.30-25.98 221.31-25.15L221.31-25.15L221.31-25.15Q224.77-24.77 226.91-22.34L226.91-22.34L226.91-22.34Q229.06-19.90 229.06-15.87L229.06-15.87L229.06-2.30L229.06-2.30Q229.06-1.09 228.51-0.54L228.51-0.54L228.51-0.54Q227.97 0 226.75 0L226.75 0L216.83 0L216.83 0Q215.62 0 215.07-0.54L215.07-0.54L215.07-0.54Q214.53-1.09 214.53-2.30L214.53-2.30L214.53-12.10L214.53-12.10Q214.53-13.50 213.98-14.18L213.98-14.18L213.98-14.18Q213.44-14.85 212.10-14.85L212.10-14.85L203.14-14.85L203.14-2.30L203.14-2.30Q203.14-1.09 202.59-0.54L202.59-0.54L202.59-0.54Q202.05 0 200.83 0ZM268.22 0L268.22 0L238.53 0L238.53 0Q237.31 0 236.77-0.54L236.77-0.54L236.77-0.54Q236.22-1.09 236.22-2.30L236.22-2.30L236.22-43.78L236.22-43.78Q236.22-44.99 236.77-45.54L236.77-45.54L236.77-45.54Q237.31-46.08 238.53-46.08L238.53-46.08L268.22-46.08L268.22-46.08Q269.44-46.08 269.98-45.54L269.98-45.54L269.98-45.54Q270.53-44.99 270.53-43.78L270.53-43.78L270.53-36.29L270.53-36.29Q270.53-35.07 269.98-34.53L269.98-34.53L269.98-34.53Q269.44-33.98 268.22-33.98L268.22-33.98L250.56-33.98L250.56-29.06L263.04-29.06L263.04-29.06Q264.26-29.06 264.80-28.51L264.80-28.51L264.80-28.51Q265.34-27.97 265.34-26.75L265.34-26.75L265.34-19.90L265.34-19.90Q265.34-18.69 264.80-18.14L264.80-18.14L264.80-18.14Q264.26-17.60 263.04-17.60L263.04-17.60L250.56-17.60L250.56-12.10L268.22-12.10L268.22-12.10Q269.44-12.10 269.98-11.55L269.98-11.55L269.98-11.55Q270.53-11.01 270.53-9.79L270.53-9.79L270.53-2.30L270.53-2.30Q270.53-1.09 269.98-0.54L269.98-0.54L269.98-0.54Q269.44 0 268.22 0ZM264.77-5.76L264.77-6.40L243.84-6.40L243.84-22.98L259.58-22.98L259.58-23.62L243.84-23.62L243.84-39.68L264.77-39.68L264.77-40.32L243.20-40.32L243.20-5.76L264.77-5.76ZM313.28 0L313.28 0L293.12 0L293.12 0Q285.12 0 281.25-3.20L281.25-3.20L281.25-3.20Q277.38-6.40 277.38-13.06L277.38-13.06L277.38-33.02L277.38-33.02Q277.38-39.68 281.25-42.88L281.25-42.88L281.25-42.88Q285.12-46.08 293.12-46.08L293.12-46.08L309.12-46.08L309.12-46.08Q310.34-46.08 310.88-45.54L310.88-45.54L310.88-45.54Q311.42-44.99 311.42-43.78L311.42-43.78L311.42-36.03L311.42-36.03Q311.42-34.82 310.88-34.27L310.88-34.27L310.88-34.27Q310.34-33.73 309.12-33.73L309.12-33.73L295.81-33.73L295.81-33.73Q293.82-33.73 292.86-32.93L292.86-32.93L292.86-32.93Q291.90-32.13 291.90-30.53L291.90-30.53L291.90-15.23L291.90-15.23Q291.90-13.63 292.64-12.86L292.64-12.86L292.64-12.86Q293.38-12.10 294.85-12.10L294.85-12.10L301.06-12.10L301.06-22.08L301.06-22.08Q301.06-23.30 301.60-23.84L301.60-23.84L301.60-23.84Q302.14-24.38 303.36-24.38L303.36-24.38L313.28-24.38L313.28-24.38Q314.50-24.38 315.04-23.84L315.04-23.84L315.04-23.84Q315.58-23.30 315.58-22.08L315.58-22.08L315.58-2.30L315.58-2.30Q315.58-1.09 315.04-0.54L315.04-0.54L315.04-0.54Q314.50 0 313.28 0ZM295.87-5.76L295.87-5.76L308.61-5.76L308.61-18.62L307.97-18.62L307.97-6.40L295.87-6.40L295.87-6.40Q289.41-6.40 287.20-8.13L287.20-8.13L287.20-8.13Q284.99-9.86 284.99-14.02L284.99-14.02L284.99-31.94L284.99-31.94Q284.99-36.16 286.98-37.92L286.98-37.92L286.98-37.92Q288.96-39.68 294.59-39.68L294.59-39.68L305.66-39.68L305.66-40.32L294.59-40.32L294.59-40.32Q288.45-40.32 286.40-38.40L286.40-38.40L286.40-38.40Q284.35-36.48 284.35-31.94L284.35-31.94L284.35-14.02L284.35-14.02Q284.35-11.78 284.83-10.21L284.83-10.21L284.83-10.21Q285.31-8.64 286.59-7.65L286.59-7.65L286.59-7.65Q287.87-6.66 290.11-6.21L290.11-6.21L290.11-6.21Q292.35-5.76 295.87-5.76ZM355.39 0L355.39 0L325.70 0L325.70 0Q324.48 0 323.94-0.54L323.94-0.54L323.94-0.54Q323.39-1.09 323.39-2.30L323.39-2.30L323.39-43.78L323.39-43.78Q323.39-44.99 323.94-45.54L323.94-45.54L323.94-45.54Q324.48-46.08 325.70-46.08L325.70-46.08L355.39-46.08L355.39-46.08Q356.61-46.08 357.15-45.54L357.15-45.54L357.15-45.54Q357.70-44.99 357.70-43.78L357.70-43.78L357.70-36.29L357.70-36.29Q357.70-35.07 357.15-34.53L357.15-34.53L357.15-34.53Q356.61-33.98 355.39-33.98L355.39-33.98L337.73-33.98L337.73-29.06L350.21-29.06L350.21-29.06Q351.42-29.06 351.97-28.51L351.97-28.51L351.97-28.51Q352.51-27.97 352.51-26.75L352.51-26.75L352.51-19.90L352.51-19.90Q352.51-18.69 351.97-18.14L351.97-18.14L351.97-18.14Q351.42-17.60 350.21-17.60L350.21-17.60L337.73-17.60L337.73-12.10L355.39-12.10L355.39-12.10Q356.61-12.10 357.15-11.55L357.15-11.55L357.15-11.55Q357.70-11.01 357.70-9.79L357.70-9.79L357.70-2.30L357.70-2.30Q357.70-1.09 357.15-0.54L357.15-0.54L357.15-0.54Q356.61 0 355.39 0ZM351.94-5.76L351.94-6.40L331.01-6.40L331.01-22.98L346.75-22.98L346.75-23.62L331.01-23.62L331.01-39.68L351.94-39.68L351.94-40.32L330.37-40.32L330.37-5.76L351.94-5.76ZM372.16-5.76L372.16-8.64L372.16-8.64Q372.16-9.98 372.29-11.23L372.29-11.23L372.29-11.23Q372.42-12.48 373.06-13.31L373.06-13.31L380.61-23.68L388.29-23.68L395.78-13.31L395.78-13.31Q396.42-12.42 396.54-11.20L396.54-11.20L396.54-11.20Q396.67-9.98 396.67-8.64L396.67-8.64L396.67-5.76L397.31-5.76L397.31-8.64L397.31-8.64Q397.31-10.05 397.18-11.30L397.18-11.30L397.18-11.30Q397.06-12.54 396.35-13.57L396.35-13.57L388.80-23.94L396.35-34.43L396.35-34.43Q397.06-35.46 397.18-36.70L397.18-36.70L397.18-36.70Q397.31-37.95 397.31-39.36L397.31-39.36L397.31-40.32L396.67-40.32L396.67-39.36L396.67-39.36Q396.67-38.02 396.54-36.80L396.54-36.80L396.54-36.80Q396.42-35.58 395.78-34.69L395.78-34.69L388.35-24.32L380.74-24.32L373.06-34.69L373.06-34.69Q372.42-35.58 372.29-36.80L372.29-36.80L372.29-36.80Q372.16-38.02 372.16-39.36L372.16-39.36L372.16-40.32L371.52-40.32L371.52-39.36L371.52-39.36Q371.52-37.95 371.65-36.70L371.65-36.70L371.65-36.70Q371.78-35.46 372.48-34.43L372.48-34.43L380.16-24.06L372.48-13.57L372.48-13.57Q371.71-12.54 371.62-11.30L371.62-11.30L371.62-11.30Q371.52-10.05 371.52-8.64L371.52-8.64L371.52-5.76L372.16-5.76ZM379.01-8.64L379.01-2.30L379.01-2.30Q379.01-1.09 378.46-0.54L378.46-0.54L378.46-0.54Q377.92 0 376.70 0L376.70 0L366.98 0L366.98 0Q365.76 0 365.22-0.54L365.22-0.54L365.22-0.54Q364.67-1.09 364.67-2.30L364.67-2.30L364.67-9.15L364.67-9.15Q364.67-12.10 365.18-13.57L365.18-13.57L365.18-13.57Q365.70-15.04 367.10-17.02L367.10-17.02L372.29-24L367.10-30.98L367.10-30.98Q365.63-32.96 365.15-34.43L365.15-34.43L365.15-34.43Q364.67-35.90 364.67-38.85L364.67-38.85L364.67-43.78L364.67-43.78Q364.67-44.99 365.22-45.54L365.22-45.54L365.22-45.54Q365.76-46.08 366.98-46.08L366.98-46.08L376.83-46.08L376.83-46.08Q378.05-46.08 378.59-45.54L378.59-45.54L378.59-45.54Q379.14-44.99 379.14-43.78L379.14-43.78L379.14-39.36L379.14-39.36Q379.14-38.72 379.20-38.02L379.20-38.02L379.20-38.02Q379.26-37.31 379.71-36.67L379.71-36.67L382.53-32.64L382.53-32.64Q382.85-32.13 383.20-31.84L383.20-31.84L383.20-31.84Q383.55-31.55 384.06-31.55L384.06-31.55L384.83-31.55L384.83-31.55Q385.34-31.55 385.66-31.84L385.66-31.84L385.66-31.84Q385.98-32.13 386.37-32.64L386.37-32.64L389.25-36.67L389.25-36.67Q389.70-37.31 389.76-38.02L389.76-38.02L389.76-38.02Q389.82-38.72 389.82-39.36L389.82-39.36L389.82-43.78L389.82-43.78Q389.82-44.99 390.37-45.54L390.37-45.54L390.37-45.54Q390.91-46.08 392.13-46.08L392.13-46.08L401.86-46.08L401.86-46.08Q403.07-46.08 403.62-45.54L403.62-45.54L403.62-45.54Q404.16-44.99 404.16-43.78L404.16-43.78L404.16-38.85L404.16-38.85Q404.16-35.90 403.65-34.43L403.65-34.43L403.65-34.43Q403.14-32.96 401.73-30.98L401.73-30.98L396.54-23.94L401.73-17.02L401.73-17.02Q403.20-15.04 403.68-13.57L403.68-13.57L403.68-13.57Q404.16-12.10 404.16-9.15L404.16-9.15L404.16-2.30L404.16-2.30Q404.16-1.09 403.62-0.54L403.62-0.54L403.62-0.54Q403.07 0 401.86 0L401.86 0L392.13 0L392.13 0Q390.91 0 390.37-0.54L390.37-0.54L390.37-0.54Q389.82-1.09 389.82-2.30L389.82-2.30L389.82-8.64L389.82-8.64Q389.82-9.28 389.76-9.98L389.76-9.98L389.76-9.98Q389.70-10.69 389.25-11.33L389.25-11.33L386.43-15.36L386.43-15.36Q386.05-15.94 385.73-16.19L385.73-16.19L385.73-16.19Q385.41-16.45 384.90-16.45L384.90-16.45L384-16.45L384-16.45Q383.49-16.45 383.17-16.19L383.17-16.19L383.17-16.19Q382.85-15.94 382.46-15.36L382.46-15.36L379.58-11.33L379.58-11.33Q379.14-10.69 379.07-9.98L379.07-9.98L379.07-9.98Q379.01-9.28 379.01-8.64L379.01-8.64Z" fill="url(#editing-shiny-gradient2)"></path></g></g><style>text {
  font-size: 64px;
  font-family: Arial Black;
  dominant-baseline: central;
  text-anchor: middle;
}</style></svg>